<svg width="36" height="36" viewBox="0 0 36 36" fill="none" xmlns="http://www.w3.org/2000/svg">
<g id="dataflow-01">
<path id="Icon" d="M25.5 30H25.2C22.6798 30 21.4196 30 20.457 29.5095C19.6103 29.0781 18.9219 28.3897 18.4905 27.543C18 26.5804 18 25.3202 18 22.8V13.2C18 10.6798 18 9.41965 18.4905 8.45704C18.9219 7.61031 19.6103 6.9219 20.457 6.49047C21.4196 6 22.6798 6 25.2 6H25.5M25.5 30C25.5 31.6569 26.8431 33 28.5 33C30.1569 33 31.5 31.6569 31.5 30C31.5 28.3431 30.1569 27 28.5 27C26.8431 27 25.5 28.3431 25.5 30ZM25.5 6C25.5 7.65685 26.8431 9 28.5 9C30.1569 9 31.5 7.65685 31.5 6C31.5 4.34315 30.1569 3 28.5 3C26.8431 3 25.5 4.34315 25.5 6ZM10.5 18L25.5 18M10.5 18C10.5 19.6569 9.15685 21 7.5 21C5.84315 21 4.5 19.6569 4.5 18C4.5 16.3431 5.84315 15 7.5 15C9.15685 15 10.5 16.3431 10.5 18ZM25.5 18C25.5 19.6569 26.8431 21 28.5 21C30.1569 21 31.5 19.6569 31.5 18C31.5 16.3431 30.1569 15 28.5 15C26.8431 15 25.5 16.3431 25.5 18Z" stroke="#2B2E37" stroke-width="2" stroke-linecap="round" stroke-linejoin="round"/>
</g>
</svg>
