<svg width="36" height="36" viewBox="0 0 36 36" fill="none" xmlns="http://www.w3.org/2000/svg">
<g id=" Desktop and Mobile">
<path id="Vector" d="M14.3995 29.6816H17.577M19.1133 25.5566H8.83828C6.52806 25.5566 5.37296 25.5566 4.49057 25.107C3.7144 24.7116 3.08336 24.0805 2.68788 23.3043C2.23828 22.422 2.23828 21.2669 2.23828 18.9566V12.9066C2.23828 10.5964 2.23828 9.44132 2.68788 8.55893C3.08336 7.78276 3.7144 7.15172 4.49057 6.75624C5.37296 6.30664 6.52806 6.30664 8.83828 6.30664H23.1383C25.4485 6.30664 26.6036 6.30664 27.486 6.75624C28.2622 7.15172 28.8932 7.78276 29.2887 8.55893M28.1385 26.1504H28.1465M25.0849 29.6941H31.1921C32.0921 29.6941 32.5422 29.6941 32.886 29.5225C33.1884 29.3715 33.4342 29.1305 33.5883 28.8342C33.7635 28.4973 33.7635 28.0562 33.7635 27.1741V14.8891C33.7635 14.0071 33.7635 13.566 33.5883 13.2291C33.4342 12.9328 33.1884 12.6918 32.886 12.5408C32.5422 12.3691 32.0921 12.3691 31.1921 12.3691H25.0849C24.1848 12.3691 23.7348 12.3691 23.391 12.5408C23.0886 12.6918 22.8427 12.9328 22.6887 13.2291C22.5135 13.566 22.5135 14.0071 22.5135 14.8891V27.1741C22.5135 28.0562 22.5135 28.4973 22.6887 28.8342C22.8427 29.1305 23.0886 29.3715 23.391 29.5225C23.7348 29.6941 24.1848 29.6941 25.0849 29.6941ZM28.5403 26.1504C28.5403 26.3679 28.3604 26.5441 28.1385 26.5441C27.9166 26.5441 27.7367 26.3679 27.7367 26.1504C27.7367 25.9329 27.9166 25.7566 28.1385 25.7566C28.3604 25.7566 28.5403 25.9329 28.5403 26.1504Z" stroke="#2B2E37" stroke-width="2" stroke-linecap="round" stroke-linejoin="round"/>
</g>
</svg>
