<svg width="43" height="43" viewBox="0 0 43 43" fill="none" xmlns="http://www.w3.org/2000/svg">
<g id="face-happy">
<path id="Icon" d="M26.7908 16.1552H26.8084M16.2025 16.1552H16.2202M39.1437 21.4493C39.1437 31.1955 31.2428 39.0963 21.4967 39.0963C11.7505 39.0963 3.84961 31.1955 3.84961 21.4493C3.84961 11.7031 11.7505 3.80225 21.4967 3.80225C31.2428 3.80225 39.1437 11.7031 39.1437 21.4493ZM27.6731 16.1552C27.6731 16.6425 27.2781 17.0375 26.7908 17.0375C26.3035 17.0375 25.9084 16.6425 25.9084 16.1552C25.9084 15.6679 26.3035 15.2728 26.7908 15.2728C27.2781 15.2728 27.6731 15.6679 27.6731 16.1552ZM17.0849 16.1552C17.0849 16.6425 16.6899 17.0375 16.2025 17.0375C15.7152 17.0375 15.3202 16.6425 15.3202 16.1552C15.3202 15.6679 15.7152 15.2728 16.2025 15.2728C16.6899 15.2728 17.0849 15.6679 17.0849 16.1552ZM21.4967 31.1552C25.9093 31.1552 29.4378 27.9205 29.4378 24.9787H13.5555C13.5555 27.9205 17.084 31.1552 21.4967 31.1552Z" stroke="#2B2E37" stroke-width="2" stroke-linecap="round" stroke-linejoin="round"/>
</g>
</svg>
