<svg width="44" height="43" viewBox="0 0 44 43" fill="none" xmlns="http://www.w3.org/2000/svg">
<g id="Frame 6481">
<path id="Icon" d="M36.324 28.1531L42.6769 21.8002L36.324 15.4473M7.73575 15.4473L1.38281 21.8002L7.73575 28.1531" stroke="#2B2E37" stroke-width="2" stroke-linecap="round" stroke-linejoin="round"/>
<path id="Icon_2" d="M17.7914 23.8793L25.1441 23.8793M26.2846 34.3677C26.2846 37.0279 23.4141 39.2334 21.4678 41.1797C20.5191 38.2358 16.6509 37.0279 16.6509 34.3677C16.6509 31.7074 18.8075 29.5508 21.4678 29.5508C24.128 29.5508 26.2846 31.7074 26.2846 34.3677ZM25.2107 25.6122L24.4994 7.11738C24.4367 5.48838 23.0979 4.20009 21.4677 4.20009C19.8375 4.20009 18.4987 5.48837 18.4361 7.11737L17.7247 25.6122C17.688 26.568 17.6696 27.0458 17.7699 27.4356C18.0105 28.3701 18.7229 29.1105 19.6475 29.3867C20.0331 29.502 20.5113 29.502 21.4677 29.502C22.4242 29.502 22.9024 29.502 23.288 29.3867C24.2126 29.1105 24.925 28.3701 25.1655 27.4356C25.2659 27.0458 25.2475 26.568 25.2107 25.6122Z" stroke="#2B2E37" stroke-width="2" stroke-linecap="round" stroke-linejoin="round"/>
</g>
</svg>
