<svg width="131" height="11" viewBox="0 0 131 11" fill="none" xmlns="http://www.w3.org/2000/svg">
<path d="M0.090332 10.0002V9.49698C0.382805 9.47118 0.632268 9.40236 0.838719 9.29053C1.04517 9.17871 1.22582 9.01096 1.38065 8.78731C1.5441 8.56365 1.70324 8.26688 1.85807 7.89699L4.82582 0.774405H5.29033L8.52904 8.40021C8.70108 8.79591 8.90324 9.07548 9.13549 9.23892C9.37635 9.40236 9.71614 9.48838 10.1548 9.49698V10.0002C9.92259 9.98301 9.62582 9.9744 9.26453 9.9744C8.90324 9.9658 8.48603 9.9615 8.01291 9.9615C7.47958 9.9615 7.01936 9.9658 6.63227 9.9744C6.24517 9.9744 5.9441 9.98301 5.72904 10.0002V9.49698C6.17635 9.48838 6.50324 9.44967 6.70969 9.38086C6.92474 9.31204 7.04517 9.20021 7.07098 9.04537C7.09678 8.89053 7.04517 8.66688 6.91614 8.3744L4.45162 2.50344L4.69678 2.32279L2.58065 7.43247C2.38281 7.90559 2.28818 8.29268 2.29678 8.59376C2.30539 8.89483 2.42582 9.11849 2.65807 9.26473C2.89033 9.40236 3.24732 9.47978 3.72904 9.49698V10.0002C3.47958 9.99161 3.23442 9.98731 2.99356 9.98731C2.7613 9.97871 2.53334 9.9744 2.30969 9.9744C2.08603 9.9658 1.86238 9.9615 1.63872 9.9615C1.37205 9.9615 1.11399 9.9658 0.864526 9.9744C0.615063 9.9744 0.356999 9.98301 0.090332 10.0002ZM2.51614 6.90344L2.72259 6.41311H6.78711L6.98065 6.90344H2.51614Z" fill="#2B2E37"/>
<path d="M12.8016 10.0002V9.49698C13.2403 9.47978 13.5629 9.44537 13.7693 9.39376C13.9844 9.33354 14.122 9.22602 14.1822 9.07118C14.251 8.91634 14.2854 8.68838 14.2854 8.38731V2.47763C14.2854 2.15935 14.251 1.92709 14.1822 1.78086C14.1134 1.63462 13.9715 1.53139 13.7564 1.47118C13.5499 1.41096 13.2317 1.37656 12.8016 1.36795V0.864727C13.0682 0.873329 13.3908 0.881931 13.7693 0.890533C14.1564 0.899136 14.5865 0.903437 15.0596 0.903437C15.6532 0.903437 16.1736 0.899136 16.6209 0.890533C17.0682 0.881931 17.4209 0.873329 17.679 0.864727V1.36795C17.1198 1.37656 16.7026 1.41096 16.4274 1.47118C16.1607 1.52279 15.9844 1.62602 15.8983 1.78086C15.8209 1.92709 15.7822 2.15935 15.7822 2.47763V8.45182C15.7822 8.73569 15.8037 8.95075 15.8467 9.09698C15.8983 9.24322 15.9973 9.34215 16.1435 9.39376C16.2983 9.43677 16.5263 9.45827 16.8274 9.45827H17.3177C17.7134 9.45827 18.0532 9.41526 18.337 9.32924C18.6295 9.24322 18.8833 9.10129 19.0983 8.90344C19.3134 8.69699 19.5026 8.42172 19.6661 8.07763C19.8381 7.73354 19.9973 7.30344 20.1435 6.78731H20.6596C20.5994 7.32924 20.5521 7.86688 20.5177 8.40021C20.4833 8.93354 20.4661 9.46688 20.4661 10.0002C20.0962 9.98301 19.6532 9.9744 19.137 9.9744C18.6209 9.9658 17.9973 9.9615 17.2661 9.9615C16.2768 9.9615 15.4037 9.9658 14.6467 9.9744C13.8983 9.9744 13.2833 9.98301 12.8016 10.0002Z" fill="#2B2E37"/>
<path d="M23.6747 10.0002V9.49698C24.1048 9.47978 24.4231 9.44537 24.6295 9.39376C24.8446 9.34215 24.9865 9.23892 25.0553 9.08408C25.1241 8.92924 25.1586 8.69699 25.1586 8.38731V2.47763C25.1586 2.16795 25.1241 1.94 25.0553 1.79376C24.9865 1.63892 24.8446 1.53139 24.6295 1.47118C24.4231 1.41096 24.1048 1.37656 23.6747 1.36795V0.864727C24.1392 0.873329 24.7414 0.881931 25.4811 0.890533C26.2209 0.899136 27.0854 0.903437 28.0747 0.903437C28.4102 0.903437 28.7371 0.903437 29.0553 0.903437C29.3822 0.894835 29.6876 0.890533 29.9715 0.890533C30.2639 0.881931 30.5306 0.873329 30.7715 0.864727C30.7801 1.30344 30.8016 1.73785 30.836 2.16795C30.8704 2.59806 30.922 3.02817 30.9908 3.45828H30.4618C30.35 2.94215 30.208 2.53354 30.036 2.23247C29.8639 1.93139 29.6489 1.72064 29.3908 1.60021C29.1328 1.47118 28.8059 1.40666 28.4102 1.40666H26.6553V8.45182C26.6553 8.73569 26.6768 8.95075 26.7198 9.09698C26.7715 9.24322 26.8747 9.34215 27.0295 9.39376C27.1844 9.43677 27.408 9.45827 27.7005 9.45827H28.1908C28.7241 9.45827 29.1586 9.38086 29.494 9.22602C29.8381 9.06258 30.1263 8.78731 30.3586 8.40021C30.5994 8.01311 30.8188 7.47548 31.0166 6.78731H31.5328C31.4725 7.32924 31.4252 7.86688 31.3908 8.40021C31.3564 8.92494 31.3392 9.45828 31.3392 10.0002C30.9349 9.98301 30.4618 9.9744 29.9198 9.9744C29.3865 9.9658 28.7629 9.9615 28.0489 9.9615C27.0682 9.9615 26.208 9.9658 25.4682 9.9744C24.7371 9.9744 24.1392 9.98301 23.6747 10.0002ZM26.2424 5.65182V5.1615H28.5263V5.65182H26.2424ZM29.0037 7.31634C28.9693 6.90344 28.9005 6.57655 28.7973 6.33569C28.694 6.09483 28.5435 5.92279 28.3457 5.81957C28.1564 5.70774 27.9026 5.65182 27.5844 5.65182V5.1615C28.0231 5.1615 28.3457 5.03247 28.5521 4.7744C28.7672 4.51634 28.9048 4.09053 28.965 3.49698H29.4295C29.3951 4.00451 29.3779 4.39591 29.3779 4.67118C29.3865 4.93785 29.3908 5.18301 29.3908 5.40666C29.3908 5.58731 29.3908 5.76795 29.3908 5.9486C29.3994 6.12064 29.408 6.31849 29.4166 6.54215C29.4338 6.7572 29.451 7.01526 29.4682 7.31634H29.0037Z" fill="#2B2E37"/>
<path d="M40.0733 10.0002V9.49698C40.598 9.47978 40.9249 9.39376 41.054 9.23892C41.183 9.07548 41.1271 8.82602 40.8862 8.49053L36.2927 2.15505C36.0776 1.86258 35.8583 1.66043 35.6346 1.5486C35.4196 1.43677 35.1142 1.37656 34.7185 1.36795V0.864727C34.9765 0.873329 35.2862 0.881931 35.6475 0.890533C36.0174 0.899136 36.4174 0.903437 36.8475 0.903437C37.355 0.903437 37.7851 0.903437 38.1378 0.903437C38.4905 0.894835 38.7787 0.881931 39.0023 0.864727V1.36795C38.4862 1.38516 38.1636 1.47118 38.0346 1.62602C37.9142 1.78086 37.9744 2.03032 38.2152 2.3744L42.8088 8.70989C43.0152 8.99376 43.2303 9.19161 43.454 9.30344C43.6776 9.41526 43.9873 9.47978 44.383 9.49698V10.0002C44.1163 9.99161 43.8023 9.98301 43.4411 9.9744C43.0798 9.9658 42.6841 9.9615 42.254 9.9615C41.7378 9.9615 41.3034 9.9658 40.9507 9.9744C40.598 9.9744 40.3056 9.98301 40.0733 10.0002ZM34.6798 10.0002V9.49698C34.955 9.46258 35.2088 9.39806 35.4411 9.30344C35.6733 9.20021 35.897 9.05397 36.112 8.86473C36.3357 8.67548 36.5636 8.42602 36.7959 8.11634L38.9378 5.34215L39.3249 5.66473L37.6604 7.84537C37.4023 8.18946 37.2518 8.48193 37.2088 8.72279C37.1744 8.96365 37.2561 9.1486 37.454 9.27763C37.6518 9.40666 37.9658 9.47978 38.3959 9.49698V10.0002C38.1722 9.98301 37.8841 9.9744 37.5314 9.9744C37.1873 9.9658 36.8002 9.9615 36.3701 9.9615C36.0432 9.9615 35.7421 9.9658 35.4669 9.9744C35.1916 9.9744 34.9292 9.98301 34.6798 10.0002ZM39.8411 5.36795L39.4152 5.10989L41.0411 2.94215C41.2991 2.61526 41.4454 2.34 41.4798 2.11634C41.5142 1.88408 41.4411 1.70774 41.2604 1.58731C41.0884 1.45828 40.7959 1.38516 40.383 1.36795V0.864727C40.6755 0.873329 40.9808 0.881931 41.2991 0.890533C41.6174 0.899136 41.94 0.903437 42.2669 0.903437C42.6023 0.903437 42.9034 0.899136 43.1701 0.890533C43.4454 0.881931 43.7077 0.873329 43.9572 0.864727V1.36795C43.6819 1.39376 43.4239 1.45828 43.183 1.5615C42.9507 1.66473 42.7271 1.81096 42.512 2.00021C42.297 2.18946 42.0733 2.43892 41.8411 2.7486L39.8411 5.36795Z" fill="#2B2E37"/>
<path d="M56.9419 10.1809C56.0387 10.1809 55.2516 9.99161 54.5807 9.61311C53.9097 9.23462 53.3893 8.69698 53.0194 8.00021C52.6495 7.29483 52.4645 6.45612 52.4645 5.48408C52.4645 4.52924 52.6538 3.69483 53.0323 2.98086C53.4108 2.25828 53.9355 1.69483 54.6065 1.29053C55.2774 0.886232 56.0602 0.684082 56.9548 0.684082C57.8495 0.684082 58.6323 0.873329 59.3032 1.25182C59.9828 1.63032 60.5075 2.17225 60.8774 2.87763C61.2473 3.5744 61.4323 4.40881 61.4323 5.38086C61.4323 6.33569 61.243 7.1744 60.8645 7.89699C60.486 8.61096 59.957 9.1701 59.2774 9.5744C58.6065 9.97871 57.828 10.1809 56.9419 10.1809ZM56.9678 9.70344C57.5441 9.70344 58.0473 9.52279 58.4774 9.1615C58.9075 8.80021 59.2387 8.30129 59.471 7.66473C59.7118 7.01957 59.8323 6.27118 59.8323 5.41957C59.8323 4.55075 59.7032 3.79806 59.4452 3.1615C59.1957 2.52494 58.8473 2.03462 58.4 1.69053C57.9613 1.33785 57.4667 1.1615 56.9161 1.1615C56.3484 1.1615 55.8495 1.34215 55.4194 1.70344C54.9893 2.06473 54.6538 2.56795 54.4129 3.21311C54.1721 3.84967 54.0516 4.59376 54.0516 5.44537C54.0516 6.31419 54.1807 7.06688 54.4387 7.70344C54.6968 8.34 55.0452 8.83462 55.4839 9.18731C55.9312 9.53139 56.4258 9.70344 56.9678 9.70344Z" fill="#2B2E37"/>
<path d="M68.7692 10.1809C68.2703 10.1809 67.8445 10.1292 67.4918 10.026C67.1477 9.92279 66.8638 9.82387 66.6402 9.72924C66.4251 9.62602 66.2488 9.5744 66.1111 9.5744C66.0079 9.5744 65.9219 9.62172 65.8531 9.71634C65.7929 9.80236 65.7455 9.93569 65.7111 10.1163H65.195C65.2122 9.91849 65.2251 9.68193 65.2337 9.40666C65.2423 9.12279 65.2466 8.7615 65.2466 8.32279C65.2552 7.88408 65.2595 7.33785 65.2595 6.68408H65.7757C65.8531 7.61311 66.1369 8.3443 66.6273 8.87763C67.1262 9.40236 67.7757 9.66473 68.5757 9.66473C69.1434 9.66473 69.595 9.52279 69.9305 9.23892C70.266 8.94645 70.4337 8.55505 70.4337 8.06473C70.4337 7.75505 70.3563 7.47978 70.2015 7.23892C70.0552 6.99806 69.8144 6.7744 69.4789 6.56795C69.152 6.3615 68.7133 6.15505 68.1628 5.9486C67.509 5.71634 66.9757 5.46258 66.5628 5.18731C66.1498 4.90344 65.8488 4.58946 65.6595 4.24537C65.4703 3.90129 65.3756 3.51419 65.3756 3.08408C65.3756 2.59376 65.4875 2.17225 65.7111 1.81957C65.9348 1.45828 66.2531 1.17871 66.666 0.980856C67.0789 0.783007 67.5649 0.684082 68.124 0.684082C68.58 0.684082 68.9584 0.735695 69.2595 0.838921C69.5606 0.933544 69.8101 1.03247 70.0079 1.13569C70.2058 1.23892 70.3735 1.29053 70.5111 1.29053C70.623 1.29053 70.709 1.24752 70.7692 1.1615C70.838 1.07548 70.8896 0.937845 70.924 0.748598H71.4402C71.423 0.937845 71.4101 1.1529 71.4015 1.39376C71.3929 1.62602 71.3843 1.92279 71.3756 2.28408C71.3756 2.64537 71.3756 3.11419 71.3756 3.69053H70.8595C70.7735 2.93354 70.5025 2.33139 70.0466 1.88408C69.5907 1.42817 69.0144 1.20021 68.3176 1.20021C67.8015 1.20021 67.3972 1.32924 67.1047 1.58731C66.8208 1.83677 66.6789 2.18086 66.6789 2.61957C66.6789 2.91204 66.7563 3.1744 66.9111 3.40666C67.066 3.63892 67.3197 3.85828 67.6724 4.06473C68.0337 4.27118 68.5111 4.48623 69.1047 4.70989C70.0853 5.07118 70.7864 5.47978 71.2079 5.93569C71.638 6.38301 71.8531 6.93785 71.8531 7.60021C71.8531 8.40021 71.5735 9.03247 71.0144 9.49698C70.4638 9.9529 69.7154 10.1809 68.7692 10.1809Z" fill="#2B2E37"/>
<path d="M74.5147 10.0002V9.49698C74.8072 9.47118 75.0566 9.40236 75.2631 9.29053C75.4696 9.17871 75.6502 9.01096 75.805 8.78731C75.9685 8.56365 76.1276 8.26688 76.2824 7.89699L79.2502 0.774405H79.7147L82.9534 8.40021C83.1255 8.79591 83.3276 9.07548 83.5599 9.23892C83.8007 9.40236 84.1405 9.48838 84.5792 9.49698V10.0002C84.347 9.98301 84.0502 9.9744 83.6889 9.9744C83.3276 9.9658 82.9104 9.9615 82.4373 9.9615C81.904 9.9615 81.4437 9.9658 81.0566 9.9744C80.6696 9.9744 80.3685 9.98301 80.1534 10.0002V9.49698C80.6007 9.48838 80.9276 9.44967 81.1341 9.38086C81.3491 9.31204 81.4695 9.20021 81.4954 9.04537C81.5212 8.89053 81.4695 8.66688 81.3405 8.3744L78.876 2.50344L79.1212 2.32279L77.005 7.43247C76.8072 7.90559 76.7126 8.29268 76.7212 8.59376C76.7298 8.89483 76.8502 9.11849 77.0825 9.26473C77.3147 9.40236 77.6717 9.47978 78.1534 9.49698V10.0002C77.904 9.99161 77.6588 9.98731 77.4179 9.98731C77.1857 9.97871 76.9577 9.9744 76.7341 9.9744C76.5104 9.9658 76.2868 9.9615 76.0631 9.9615C75.7964 9.9615 75.5384 9.9658 75.2889 9.9744C75.0394 9.9744 74.7814 9.98301 74.5147 10.0002ZM76.9405 6.90344L77.147 6.41311H81.2115L81.405 6.90344H76.9405Z" fill="#2B2E37"/>
<path d="M87.2259 10.0002V9.49698C87.6646 9.47978 87.9872 9.44537 88.1937 9.39376C88.4001 9.33354 88.5378 9.23032 88.6066 9.08408C88.6754 8.92924 88.7098 8.69699 88.7098 8.38731V2.47763C88.7098 2.16795 88.6754 1.94 88.6066 1.79376C88.5378 1.63892 88.4001 1.53139 88.1937 1.47118C87.9872 1.41096 87.6646 1.37656 87.2259 1.36795V0.864727C87.484 0.873329 87.7894 0.881931 88.1421 0.890533C88.4948 0.890533 88.9292 0.890533 89.4453 0.890533C89.6861 0.890533 89.927 0.890533 90.1679 0.890533C90.4173 0.881931 90.6496 0.87763 90.8646 0.87763C91.0883 0.869028 91.269 0.864727 91.4066 0.864727C93.0754 0.864727 94.3356 1.23462 95.1872 1.9744C96.0388 2.71419 96.4646 3.80236 96.4646 5.23892C96.4646 6.24537 96.2625 7.10559 95.8582 7.81957C95.4539 8.52494 94.8689 9.06688 94.1034 9.44537C93.3464 9.81526 92.4345 10.0002 91.3679 10.0002C91.1442 10.0002 90.8732 9.99591 90.555 9.98731C90.2453 9.9701 89.8754 9.9615 89.4453 9.9615C89.0066 9.9615 88.5894 9.9658 88.1937 9.9744C87.798 9.98301 87.4754 9.99161 87.2259 10.0002ZM91.3034 9.50989C92.5335 9.50989 93.4324 9.18301 94.0001 8.52924C94.5765 7.87548 94.8646 6.83892 94.8646 5.41957C94.8646 3.99161 94.5808 2.95935 94.013 2.32279C93.4539 1.67763 92.5507 1.35505 91.3034 1.35505H90.2066V8.41311C90.2066 8.72279 90.2324 8.95935 90.284 9.12279C90.3442 9.27763 90.4517 9.38086 90.6066 9.43247C90.7614 9.48408 90.9937 9.50989 91.3034 9.50989Z" fill="#2B2E37"/>
<path d="M104.375 10.1809C103.532 10.1809 102.796 9.99161 102.168 9.61311C101.549 9.22602 101.067 8.68408 100.723 7.98731C100.379 7.29053 100.207 6.47763 100.207 5.5486C100.207 4.58516 100.383 3.73785 100.736 3.00666C101.097 2.27548 101.596 1.70774 102.233 1.30344C102.869 0.890533 103.605 0.684082 104.439 0.684082C104.844 0.684082 105.192 0.727093 105.484 0.813114C105.786 0.890533 106.044 0.989458 106.259 1.10989C106.474 1.22172 106.659 1.32064 106.813 1.40666C106.968 1.48408 107.11 1.52279 107.239 1.52279C107.368 1.52279 107.467 1.46258 107.536 1.34215C107.605 1.22172 107.656 1.02387 107.691 0.748598H108.207C108.198 0.99806 108.19 1.26903 108.181 1.5615C108.173 1.84537 108.164 2.19376 108.155 2.60666C108.155 3.01957 108.155 3.53569 108.155 4.15505H107.639C107.545 3.5443 107.36 3.01957 107.084 2.58086C106.809 2.14215 106.469 1.80666 106.065 1.5744C105.661 1.34215 105.205 1.22602 104.697 1.22602C103.786 1.22602 103.072 1.59591 102.555 2.33569C102.048 3.06688 101.794 4.09483 101.794 5.41957C101.794 6.73569 102.052 7.77225 102.568 8.52924C103.084 9.27763 103.794 9.65182 104.697 9.65182C105.213 9.65182 105.674 9.53139 106.078 9.29053C106.491 9.04967 106.831 8.70989 107.097 8.27118C107.373 7.82387 107.553 7.30344 107.639 6.70989H108.155C108.155 7.30344 108.155 7.80666 108.155 8.21957C108.164 8.63247 108.173 8.98946 108.181 9.29053C108.19 9.58301 108.198 9.85828 108.207 10.1163H107.691C107.656 9.83247 107.605 9.63462 107.536 9.52279C107.476 9.41096 107.381 9.35505 107.252 9.35505C107.106 9.35505 106.951 9.39806 106.788 9.48408C106.633 9.5615 106.448 9.65612 106.233 9.76795C106.018 9.87978 105.755 9.9744 105.446 10.0518C105.145 10.1378 104.788 10.1809 104.375 10.1809Z" fill="#2B2E37"/>
<path d="M117.939 10.0002V9.49698C118.317 9.47978 118.597 9.44537 118.778 9.39376C118.967 9.33354 119.092 9.23032 119.152 9.08408C119.212 8.92924 119.242 8.69699 119.242 8.38731V2.47763C119.242 2.16795 119.212 1.94 119.152 1.79376C119.1 1.63892 118.98 1.53139 118.791 1.47118C118.61 1.41096 118.326 1.37656 117.939 1.36795V0.864727C118.154 0.873329 118.442 0.881931 118.803 0.890533C119.165 0.899136 119.565 0.903437 120.003 0.903437C120.502 0.903437 120.941 0.899136 121.32 0.890533C121.698 0.881931 121.999 0.873329 122.223 0.864727V1.36795C121.793 1.37656 121.47 1.41096 121.255 1.47118C121.049 1.53139 120.911 1.63892 120.842 1.79376C120.782 1.94 120.752 2.16795 120.752 2.47763V8.38731C120.752 8.69699 120.782 8.92924 120.842 9.08408C120.911 9.23032 121.049 9.33354 121.255 9.39376C121.47 9.44537 121.793 9.47978 122.223 9.49698V10.0002C121.999 9.98301 121.698 9.9744 121.32 9.9744C120.941 9.9658 120.502 9.9615 120.003 9.9615C119.556 9.9615 119.152 9.9658 118.791 9.9744C118.438 9.9744 118.154 9.98301 117.939 10.0002ZM112.003 10.0002V9.49698C112.442 9.47978 112.765 9.44537 112.971 9.39376C113.178 9.33354 113.315 9.23032 113.384 9.08408C113.453 8.92924 113.487 8.69699 113.487 8.38731V2.47763C113.487 2.16795 113.453 1.94 113.384 1.79376C113.315 1.63892 113.178 1.53139 112.971 1.47118C112.765 1.41096 112.442 1.37656 112.003 1.36795V0.864727C112.236 0.873329 112.541 0.881931 112.92 0.890533C113.307 0.899136 113.75 0.903437 114.249 0.903437C114.687 0.903437 115.083 0.899136 115.436 0.890533C115.797 0.881931 116.081 0.873329 116.287 0.864727V1.36795C115.909 1.37656 115.625 1.41096 115.436 1.47118C115.255 1.53139 115.135 1.63892 115.074 1.79376C115.014 1.94 114.984 2.16795 114.984 2.47763V8.38731C114.984 8.68838 115.014 8.91634 115.074 9.07118C115.135 9.22602 115.255 9.33354 115.436 9.39376C115.625 9.44537 115.909 9.47978 116.287 9.49698V10.0002C116.081 9.98301 115.797 9.9744 115.436 9.9744C115.074 9.9658 114.674 9.9615 114.236 9.9615C113.737 9.9615 113.294 9.9658 112.907 9.9744C112.528 9.9744 112.227 9.98301 112.003 10.0002ZM114.403 5.65182V5.1615H119.823V5.65182H114.403Z" fill="#2B2E37"/>
<path d="M125.564 10.0002V9.49698C126.003 9.47978 126.325 9.44537 126.532 9.39376C126.738 9.33354 126.876 9.23032 126.945 9.08408C127.014 8.92924 127.048 8.69699 127.048 8.38731V2.47763C127.048 2.16795 127.014 1.94 126.945 1.79376C126.876 1.63892 126.738 1.53139 126.532 1.47118C126.325 1.41096 126.003 1.37656 125.564 1.36795V0.864727C125.796 0.873329 126.102 0.881931 126.48 0.890533C126.867 0.899136 127.31 0.903437 127.809 0.903437C128.274 0.903437 128.7 0.899136 129.087 0.890533C129.474 0.881931 129.783 0.873329 130.016 0.864727V1.36795C129.594 1.37656 129.276 1.41096 129.061 1.47118C128.854 1.53139 128.717 1.63892 128.648 1.79376C128.579 1.94 128.545 2.16795 128.545 2.47763V8.38731C128.545 8.69699 128.579 8.92924 128.648 9.08408C128.717 9.23032 128.854 9.33354 129.061 9.39376C129.276 9.44537 129.594 9.47978 130.016 9.49698V10.0002C129.783 9.99161 129.474 9.98301 129.087 9.9744C128.7 9.9658 128.274 9.9615 127.809 9.9615C127.31 9.9615 126.867 9.9658 126.48 9.9744C126.102 9.98301 125.796 9.99161 125.564 10.0002Z" fill="#2B2E37"/>
</svg>
