<svg width="36" height="36" viewBox="0 0 36 36" fill="none" xmlns="http://www.w3.org/2000/svg">
<g id="magic-wand-01">
<path id="Icon" d="M19.4998 21L14.9998 16.5M22.5153 5.25V3M28.4243 7.59099L30.0153 6M28.4243 19.5L30.0153 21.091M16.5153 7.59099L14.9243 6M30.7653 13.5H33.0153M9.19683 31.3029L23.0527 17.4471C23.6467 16.853 23.9438 16.556 24.055 16.2135C24.1529 15.9123 24.1529 15.5877 24.055 15.2865C23.9438 14.944 23.6467 14.647 23.0527 14.0529L21.9468 12.9471C21.3528 12.353 21.0558 12.056 20.7133 11.9447C20.412 11.8468 20.0875 11.8468 19.7862 11.9447C19.4438 12.056 19.1467 12.353 18.5527 12.9471L4.69683 26.8029C4.1028 27.397 3.80579 27.694 3.69451 28.0365C3.59662 28.3377 3.59662 28.6623 3.69451 28.9635C3.80579 29.306 4.1028 29.603 4.69683 30.1971L5.80272 31.3029C6.39674 31.897 6.69375 32.194 7.03625 32.3053C7.33751 32.4032 7.66203 32.4032 7.9633 32.3053C8.30579 32.194 8.6028 31.897 9.19683 31.3029Z" stroke="#2B2E37" stroke-width="2" stroke-linecap="round" stroke-linejoin="round"/>
</g>
</svg>
