<svg width="36" height="36" viewBox="0 0 36 36" fill="none" xmlns="http://www.w3.org/2000/svg">
<g id=" Desktop and Mobile">
<path id="Vector" d="M14.3995 29.6811H17.577M19.1133 25.5561H8.83828C6.52806 25.5561 5.37296 25.5561 4.49057 25.1066C3.7144 24.7111 3.08336 24.08 2.68788 23.3039C2.23828 22.4215 2.23828 21.2664 2.23828 18.9562V12.9062C2.23828 10.5959 2.23828 9.44083 2.68788 8.55844C3.08336 7.78227 3.7144 7.15123 4.49057 6.75575C5.37296 6.30615 6.52806 6.30615 8.83828 6.30615H23.1383C25.4485 6.30615 26.6036 6.30615 27.486 6.75575C28.2622 7.15123 28.8932 7.78227 29.2887 8.55844M28.1385 26.1499H28.1465M25.0849 29.6937H31.1921C32.0921 29.6937 32.5422 29.6937 32.886 29.522C33.1884 29.371 33.4342 29.13 33.5883 28.8337C33.7635 28.4968 33.7635 28.0557 33.7635 27.1737V14.8887C33.7635 14.0066 33.7635 13.5655 33.5883 13.2286C33.4342 12.9323 33.1884 12.6913 32.886 12.5403C32.5422 12.3687 32.0921 12.3687 31.1921 12.3687H25.0849C24.1848 12.3687 23.7348 12.3687 23.391 12.5403C23.0886 12.6913 22.8427 12.9323 22.6887 13.2286C22.5135 13.5655 22.5135 14.0066 22.5135 14.8887V27.1737C22.5135 28.0557 22.5135 28.4968 22.6887 28.8337C22.8427 29.13 23.0886 29.371 23.391 29.522C23.7348 29.6937 24.1848 29.6937 25.0849 29.6937ZM28.5403 26.1499C28.5403 26.3674 28.3604 26.5437 28.1385 26.5437C27.9166 26.5437 27.7367 26.3674 27.7367 26.1499C27.7367 25.9324 27.9166 25.7562 28.1385 25.7562C28.3604 25.7562 28.5403 25.9324 28.5403 26.1499Z" stroke="#2B2E37" stroke-width="2" stroke-linecap="round" stroke-linejoin="round"/>
</g>
</svg>
