<svg width="43" height="43" viewBox="0 0 43 43" fill="none" xmlns="http://www.w3.org/2000/svg">
<g id="rocket-02">
<path id="Icon" d="M21.4991 27.0954L16.205 21.8013M21.4991 27.0954C23.9641 26.1579 26.3289 24.9755 28.5579 23.566M21.4991 27.0954V35.9189C21.4991 35.9189 26.8461 34.9483 28.5579 32.3895C30.4638 29.5307 28.5579 23.566 28.5579 23.566M16.205 21.8013C17.144 19.365 18.3265 17.0296 19.7344 14.8307C21.7906 11.543 24.6537 8.83609 28.0514 6.96735C31.4491 5.0986 35.2685 4.13019 39.1461 4.15425C39.1461 8.95424 37.7696 17.3895 28.5579 23.566M16.205 21.8013H7.38143C7.38143 21.8013 8.35202 16.4542 10.9108 14.7425C13.7697 12.8366 19.7344 14.7425 19.7344 14.7425M8.26378 29.7425C5.61673 31.966 4.73438 38.566 4.73438 38.566C4.73438 38.566 11.3344 37.6836 13.5579 35.0366C14.8108 33.5542 14.7932 31.2778 13.3991 29.9013C12.7131 29.2466 11.8096 28.8683 10.8618 28.839C9.91406 28.8097 8.98886 29.1314 8.26378 29.7425Z" stroke="#2B2E37" stroke-width="2" stroke-linecap="round" stroke-linejoin="round"/>
</g>
</svg>
