<svg width="36" height="36" viewBox="0 0 36 36" fill="none" xmlns="http://www.w3.org/2000/svg">
<g id="tag-01">
<path id="Icon" d="M12 12H12.015M3 7.8L3 14.5118C3 15.2455 3 15.6124 3.08289 15.9577C3.15638 16.2638 3.27759 16.5564 3.44208 16.8249C3.6276 17.1276 3.88703 17.387 4.40589 17.9059L15.9088 29.4088C17.6909 31.1909 18.5819 32.0819 19.6094 32.4158C20.5132 32.7094 21.4868 32.7094 22.3906 32.4158C23.4181 32.0819 24.3091 31.1909 26.0912 29.4088L29.4088 26.0912C31.1909 24.3091 32.0819 23.4181 32.4158 22.3906C32.7094 21.4868 32.7094 20.5132 32.4158 19.6094C32.0819 18.5819 31.1909 17.6909 29.4088 15.9088L17.9059 4.40589C17.387 3.88703 17.1276 3.6276 16.8249 3.44208C16.5564 3.27759 16.2638 3.15638 15.9577 3.08289C15.6124 3 15.2455 3 14.5118 3L7.8 3C6.11984 3 5.27976 3 4.63803 3.32698C4.07354 3.6146 3.6146 4.07354 3.32698 4.63803C3 5.27976 3 6.11984 3 7.8ZM12.75 12C12.75 12.4142 12.4142 12.75 12 12.75C11.5858 12.75 11.25 12.4142 11.25 12C11.25 11.5858 11.5858 11.25 12 11.25C12.4142 11.25 12.75 11.5858 12.75 12Z" stroke="#2B2E37" stroke-width="2" stroke-linecap="round" stroke-linejoin="round"/>
</g>
</svg>
