<svg width="36" height="36" viewBox="0 0 36 36" fill="none" xmlns="http://www.w3.org/2000/svg">
<g id="thumbs-up">
<path id="Icon" d="M10.5 33V16.5M3 19.5V30C3 31.6569 4.34315 33 6 33H26.1394C28.3604 33 30.2493 31.3795 30.587 29.1843L32.2024 18.6843C32.6218 15.9583 30.5127 13.5 27.7547 13.5H22.5C21.6716 13.5 21 12.8284 21 12V6.69876C21 4.65599 19.344 3 17.3012 3C16.814 3 16.3725 3.28694 16.1746 3.73218L10.8959 15.6092C10.6552 16.1509 10.118 16.5 9.52519 16.5H6C4.34315 16.5 3 17.8431 3 19.5Z" stroke="#2B2E37" stroke-width="2" stroke-linecap="round" stroke-linejoin="round"/>
</g>
</svg>
